HIERARCHY
ROOT Pelvis
{
	OFFSET 0.000000 0.000000 0.000000
	CHANNELS 6 Xposition Yposition Zposition Xrotation Yrotation Zrotation
	JOINT LeftUpLeg_virtual
	{
		OFFSET 0.000000 0.000000 0.000000
		CHANNELS 3 Xrotation Yrotation Zrotation
		JOINT LeftUpLeg
		{
			OFFSET 18.735201 -5.666702 -4.541200
			CHANNELS 3 Xrotation Yrotation Zrotation
			JOINT LeftLeg
			{
				OFFSET -0.021200 -31.938179 0.493100
				CHANNELS 3 Xrotation Yrotation Zrotation
				JOINT LeftFoot
				{
					OFFSET 0.021200 -31.938179 -4.336299
					CHANNELS 3 Xrotation Yrotation Zrotation
					JOINT LeftToeBase
					{
						OFFSET 0.943001 -26.722000 15.023500
						CHANNELS 3 Xrotation Yrotation Zrotation
						End Site
						{
							OFFSET 0 0 0
						}
					}
				}
			}
		}
	}
	JOINT RightUpLeg_virtual
	{
		OFFSET 0.000000 0.000000 0.000000
		CHANNELS 3 Xrotation Yrotation Zrotation
		JOINT RightUpLeg
		{
			OFFSET -18.735201 -5.666702 -4.541200
			CHANNELS 3 Xrotation Yrotation Zrotation
			JOINT RightLeg
			{
				OFFSET 0.018946 -31.938133 0.493100
				CHANNELS 3 Xrotation Yrotation Zrotation
				JOINT RightFoot
				{
					OFFSET -0.018946 -31.938126 -4.336299
					CHANNELS 3 Xrotation Yrotation Zrotation
					JOINT RightToeBase
					{
						OFFSET -0.943001 -26.722004 15.023500
						CHANNELS 3 Xrotation Yrotation Zrotation
						End Site
						{
							OFFSET 0 0 0
						}
					}
				}
			}
		}
	}
	JOINT Hips_virtual
	{
		OFFSET 0.000000 0.000000 0.000000
		CHANNELS 3 Xrotation Yrotation Zrotation
		JOINT Hips
		{
			OFFSET -0.000000 -0.000000 -0.000000
			CHANNELS 3 Xrotation Yrotation Zrotation
			JOINT Spine
			{
				OFFSET 0.000000 10.199997 -0.299500
				CHANNELS 3 Xrotation Yrotation Zrotation
				JOINT Spine1
				{
					OFFSET 0.000000 11.900002 -1.516600
					CHANNELS 3 Xrotation Yrotation Zrotation
					JOINT Spine2
					{
						OFFSET 0.000000 13.600006 -2.842500
						CHANNELS 3 Xrotation Yrotation Zrotation
						JOINT Neck_virtual
						{
							OFFSET 0.000000 0.000000 0.000000
							CHANNELS 3 Xrotation Yrotation Zrotation
							JOINT Neck
							{
								OFFSET 0.000000 9.624100 -2.890100
								CHANNELS 3 Xrotation Yrotation Zrotation
								JOINT Head
								{
									OFFSET 0.000000 14.068802 -1.351900
									CHANNELS 3 Xrotation Yrotation Zrotation
									End Site
									{
										OFFSET 0 0 0
									}
								}
							}
						}
						JOINT LeftShoulder_virtual
						{
							OFFSET 0.000000 0.000000 0.000000
							CHANNELS 3 Xrotation Yrotation Zrotation
							JOINT LeftShoulder
							{
								OFFSET 15.263000 10.923401 -0.547700
								CHANNELS 3 Xrotation Yrotation Zrotation
								JOINT LeftArm
								{
									OFFSET 25.438599 -2.830597 -13.032500
									CHANNELS 3 Xrotation Yrotation Zrotation
									JOINT LeftForeArm
									{
										OFFSET 29.960503 0.000000 0.000000
										CHANNELS 3 Xrotation Yrotation Zrotation
										JOINT LeftHand
										{
											OFFSET 27.849251 0.000000 0.000000
											CHANNELS 3 Xrotation Yrotation Zrotation
											End Site
											{
												OFFSET 0 0 0
											}
										}
									}
								}
							}
						}
						JOINT RightShoulder_virtual
						{
							OFFSET 0.000000 0.000000 0.000000
							CHANNELS 3 Xrotation Yrotation Zrotation
							JOINT RightShoulder
							{
								OFFSET -15.263000 10.923401 -0.547700
								CHANNELS 3 Xrotation Yrotation Zrotation
								JOINT RightArm
								{
									OFFSET -25.438599 -2.830597 -13.032500
									CHANNELS 3 Xrotation Yrotation Zrotation
									JOINT RightForeArm
									{
										OFFSET -29.960503 0.000000 0.000000
										CHANNELS 3 Xrotation Yrotation Zrotation
										JOINT RightHand
										{
											OFFSET -27.849251 0.000000 0.000000
											CHANNELS 3 Xrotation Yrotation Zrotation
											End Site
											{
												OFFSET 0 0 0
											}
										}
									}
								}
							}
						}
					}
				}
			}
		}
	}
}
MOTION
Frames: 5
Frame Time: 0.03333333
-0.294580 94.196831 3.900488 0.000000 0.000000 0.000000 -4.563462 -1.270802 1.403995 -6.472973 7.107275 6.902999 21.497078 9.936785 1.787110 -7.716658 5.805777 -8.755490 0.000000 0.000000 0.000000 -4.673024 -0.159072 1.169183 -3.231443 -8.817856 -7.105882 20.655339 -9.061561 1.015986 -10.974663 -6.439930 10.212296 0.000000 0.000000 0.000000 -4.860705 -0.784933 1.684997 -0.539889 -0.242827 -1.293841 4.515613 1.854680 -2.487940 0.703633 0.474186 -0.321527 0.000000 0.000000 0.000000 0.063412 0.624338 -0.404801 0.814785 -0.693675 0.349243 0.000000 0.000000 0.000000 0.053440 0.691568 -0.649687 2.884671 -6.246825 -11.827934 -8.562592 -9.337003 -61.876391 0.556372 -19.027626 -0.372875 0.000000 0.000000 0.000000 0.635024 0.703898 -0.534241 2.473308 1.111871 15.151994 -1.404874 6.789254 63.133501 0.521649 17.321971 0.997483 0.000000 0.000000 0.000000 
-0.323111 94.180176 3.767916 0.000000 0.000000 0.000000 -4.645410 -1.049146 1.474763 -6.476125 7.061027 6.837954 21.357392 9.861892 1.811600 -7.768820 5.798610 -8.867226 0.000000 0.000000 0.000000 -4.756959 0.031014 1.218184 -3.074596 -8.852786 -7.100732 20.506400 -8.989300 1.032155 -10.932152 -6.468469 10.296381 0.000000 0.000000 0.000000 -4.928126 -0.597437 1.732486 -0.562672 -0.152523 -1.268288 4.544034 1.985964 -2.390161 0.702793 0.529689 -0.320667 0.000000 0.000000 0.000000 0.081929 0.660376 -0.413234 0.831926 -0.692765 0.331634 0.000000 0.000000 0.000000 0.071629 0.748417 -0.633423 2.837780 -5.835991 -11.857085 -7.943145 -8.735549 -61.909545 0.553739 -18.098246 -0.415674 0.000000 0.000000 0.000000 0.636295 0.742892 -0.534924 2.481351 1.343452 15.046155 -2.247922 7.462689 62.910256 0.480186 17.635043 0.994801 0.000000 0.000000 0.000000 
-0.385120 94.146118 3.515764 0.000000 0.000000 0.000000 -4.875076 -0.532323 1.615042 -6.672558 6.948323 6.808001 21.484630 9.679452 1.790149 -7.941585 5.564491 -9.113997 0.000000 0.000000 0.000000 -4.994508 0.520368 1.329768 -2.938334 -8.816333 -7.014994 20.772665 -9.022021 1.012691 -11.280123 -6.832006 10.084358 0.000000 0.000000 0.000000 -5.141730 -0.135879 1.843095 -0.585672 -0.122169 -1.253313 4.678610 2.223115 -2.250498 0.743907 0.609344 -0.296977 0.000000 0.000000 0.000000 0.132964 0.735048 -0.400717 0.858647 -0.698682 0.319692 0.000000 0.000000 0.000000 0.127835 0.833197 -0.585058 2.805910 -5.540381 -11.874398 -7.056136 -7.509278 -61.954447 0.580489 -16.956465 -0.399936 0.000000 0.000000 0.000000 0.670848 0.812619 -0.504846 2.509509 1.619673 14.932926 -3.402790 8.547989 62.547478 0.428451 18.206040 0.972577 0.000000 0.000000 0.000000 
-0.457469 94.101295 3.189682 0.000000 0.000000 0.000000 -5.210467 0.198471 1.808588 -7.010089 6.806842 6.796265 21.856494 9.428275 1.721714 -8.202238 5.148938 -9.420268 0.000000 0.000000 0.000000 -5.341529 1.237137 1.486041 -2.836130 -8.741134 -6.888380 21.356557 -9.157343 0.985742 -12.012727 -7.473473 9.647343 0.000000 0.000000 0.000000 -5.475816 0.526204 1.995995 -0.600659 -0.117996 -1.259199 4.884991 2.528953 -2.102717 0.824739 0.695841 -0.255753 0.000000 0.000000 0.000000 0.214016 0.828411 -0.365408 0.889975 -0.711819 0.316418 0.000000 0.000000 0.000000 0.208252 0.926951 -0.518407 2.789062 -5.428966 -11.902626 -6.056023 -5.876532 -62.003528 0.615155 -15.890317 -0.344676 0.000000 0.000000 0.000000 0.736795 0.898159 -0.455980 2.552203 1.901178 14.859488 -4.479788 9.826894 62.072746 0.387802 19.078911 0.963409 0.000000 0.000000 0.000000 
-0.543388 94.047806 2.831047 0.000000 0.000000 0.000000 -5.614261 1.030433 2.013341 -7.412512 6.681274 6.805447 22.427881 9.147190 1.620139 -8.516748 4.643431 -9.681871 0.000000 0.000000 0.000000 -5.750639 2.081021 1.663114 -2.757922 -8.661254 -6.744850 22.107941 -9.339209 0.982409 -12.801461 -8.239478 9.186902 0.000000 0.000000 0.000000 -5.886540 1.318174 2.160073 -0.615078 -0.094143 -1.279407 5.117784 2.856687 -1.971113 0.923885 0.780484 -0.204075 0.000000 0.000000 0.000000 0.311278 0.921228 -0.309302 0.920345 -0.731544 0.322289 0.000000 0.000000 0.000000 0.303619 1.016176 -0.448060 2.798764 -5.466344 -11.935987 -4.949953 -3.993968 -62.080115 0.636286 -15.056056 -0.280864 0.000000 0.000000 0.000000 0.817113 0.984739 -0.401826 2.583127 2.167022 14.824219 -5.292783 11.087280 61.546411 0.355961 20.311091 0.985032 0.000000 0.000000 0.000000 
